<svg width="352" height="401" viewBox="0 0 352 401" fill="none" xmlns="http://www.w3.org/2000/svg">
<rect x="164.365" y="293.168" width="61.7177" height="106.832" rx="3.51536" fill="#00ADB5" stroke="black" stroke-width="1.64486" stroke-linejoin="round"/>
<rect x="2.91174" y="324.017" width="61.7177" height="75.9833" rx="3.51536" fill="#EEEEEE" stroke="black" stroke-width="1.64486" stroke-linejoin="round"/>
<rect x="289.282" y="174.742" width="61.7177" height="225.258" rx="3.51536" fill="#00ADB5" stroke="black" stroke-width="1.64486" stroke-linejoin="round"/>
<path d="M84.8353 147.32L148.291 147.32C148.291 147.32 138.178 224.83 124.414 237.537C110.65 250.245 38.6147 285.096 38.6147 285.096L14.355 272.609L59.5799 212.877C59.5799 212.877 54.6065 189.584 84.8353 147.32Z" fill="#00ADB5" stroke="black" stroke-width="1.39887"/>
<path d="M39.6408 284.397L14.3554 272.612L1.55831 284.167C1.55831 284.167 23.1314 294.654 38.1823 298.764L31.8078 291.713L39.6408 284.397Z" fill="#EEEEEE" stroke="black" stroke-width="1.39887" stroke-linejoin="round"/>
<path d="M85.1061 146.19L154.439 146.114C154.439 146.114 192.982 174.538 197.838 191.216C202.694 207.894 197.156 268.419 197.156 268.419L169.134 278.809L140.204 214.881C140.204 214.881 109.957 190.851 85.1061 146.19Z" fill="#00ADB5"/>
<path d="M85.1061 146.19L85.0527 145.541C84.8041 145.542 84.5808 145.65 84.4574 145.83C84.334 146.01 84.3268 146.239 84.4381 146.439L85.1061 146.19ZM154.439 146.114L154.899 145.631L154.672 145.465L154.386 145.465L154.439 146.114ZM197.156 268.419L197.489 269.018L197.867 268.878L197.9 268.515L197.156 268.419ZM169.134 278.809L168.441 279.009L168.744 279.677L169.467 279.409L169.134 278.809ZM140.204 214.881L140.896 214.681L140.827 214.528L140.686 214.416L140.204 214.881ZM85.1594 146.839L154.493 146.762L154.386 145.465L85.0527 145.541L85.1594 146.839ZM196.823 267.819L168.801 278.209L169.467 279.409L197.489 269.018L196.823 267.819ZM169.826 278.609L140.896 214.681L139.511 215.081L168.441 279.009L169.826 278.609ZM140.204 214.881C140.686 214.416 140.686 214.416 140.686 214.416C140.686 214.416 140.686 214.416 140.685 214.416C140.685 214.415 140.683 214.414 140.682 214.413C140.679 214.41 140.673 214.406 140.667 214.4C140.653 214.389 140.632 214.373 140.603 214.35C140.547 214.304 140.462 214.235 140.35 214.143C140.126 213.959 139.792 213.682 139.358 213.313C138.49 212.575 137.218 211.468 135.613 209.999C132.404 207.062 127.862 202.678 122.544 196.9C111.908 185.344 98.1685 168.217 85.7741 145.942L84.4381 146.439C96.8944 168.825 110.704 186.042 121.404 197.666C126.754 203.479 131.327 207.893 134.565 210.857C136.185 212.339 137.47 213.459 138.353 214.209C138.794 214.584 139.135 214.867 139.366 215.057C139.481 215.151 139.569 215.223 139.629 215.271C139.659 215.295 139.682 215.313 139.697 215.326C139.705 215.332 139.711 215.337 139.715 215.34C139.717 215.342 139.718 215.343 139.72 215.344C139.72 215.344 139.721 215.345 139.721 215.345C139.721 215.345 139.722 215.345 140.204 214.881ZM154.439 146.114C153.98 146.596 153.98 146.596 153.98 146.596C153.981 146.596 153.981 146.597 153.982 146.597C153.983 146.598 153.984 146.599 153.987 146.601C153.991 146.604 153.998 146.609 154.007 146.616C154.025 146.629 154.052 146.649 154.089 146.676C154.161 146.73 154.269 146.81 154.409 146.916C154.691 147.127 155.106 147.439 155.636 147.842C156.696 148.649 158.216 149.822 160.056 151.281C163.737 154.199 168.693 158.263 173.799 162.845C178.907 167.429 184.154 172.521 188.421 177.497C192.7 182.487 195.94 187.3 197.115 191.333L198.561 191.099C197.307 186.794 193.908 181.799 189.596 176.769C185.27 171.725 179.971 166.584 174.836 161.977C169.7 157.368 164.717 153.283 161.019 150.351C159.17 148.884 157.641 147.705 156.574 146.893C156.041 146.487 155.623 146.172 155.338 145.958C155.195 145.852 155.086 145.77 155.012 145.715C154.975 145.688 154.947 145.667 154.928 145.653C154.918 145.646 154.911 145.641 154.906 145.637C154.904 145.635 154.902 145.634 154.901 145.633C154.9 145.633 154.9 145.632 154.899 145.632C154.899 145.632 154.899 145.631 154.439 146.114ZM197.115 191.333C198.304 195.419 198.87 202.258 199.033 210.281C199.197 218.283 198.96 227.399 198.572 236.001C198.183 244.602 197.643 252.683 197.2 258.614C196.979 261.579 196.782 264.007 196.64 265.693C196.569 266.536 196.512 267.194 196.473 267.64C196.453 267.864 196.438 268.034 196.427 268.149C196.422 268.206 196.418 268.25 196.416 268.279C196.414 268.293 196.413 268.304 196.413 268.311C196.412 268.315 196.412 268.318 196.412 268.32C196.412 268.321 196.412 268.321 196.412 268.322C196.412 268.322 196.412 268.322 197.156 268.419C197.9 268.515 197.9 268.515 197.9 268.514C197.9 268.514 197.901 268.513 197.901 268.512C197.901 268.51 197.901 268.507 197.901 268.504C197.902 268.496 197.903 268.485 197.904 268.47C197.907 268.441 197.911 268.397 197.916 268.34C197.927 268.224 197.942 268.053 197.962 267.829C198.001 267.381 198.058 266.722 198.129 265.878C198.271 264.189 198.469 261.757 198.691 258.788C199.134 252.85 199.675 244.757 200.064 236.142C200.453 227.529 200.69 218.386 200.526 210.349C200.363 202.333 199.799 195.352 198.561 191.099L197.115 191.333Z" fill="black"/>
<path fill-rule="evenodd" clip-rule="evenodd" d="M145.918 51.3611C147.495 50.8786 148.997 50.1734 150.367 49.1943C160.712 41.8029 156.276 30.6515 150.016 24.8458C143.755 19.0401 105.456 21.3558 123.523 48.2513C123.599 48.2897 123.677 48.3284 123.756 48.3673C125.776 53.7577 124.072 58.3812 122.028 63.9287C121.195 66.1912 120.304 68.6075 119.587 71.2922L138.748 70.1408C144.015 64.143 146.012 58.0971 145.918 51.3611Z" fill="#F5B9AB"/>
<path d="M150.367 49.1943L150.932 49.8285L150.367 49.1943ZM145.918 51.3611L145.583 50.6146C145.262 50.7128 145.055 50.9847 145.059 51.3025L145.918 51.3611ZM150.016 24.8458L149.431 25.3713L150.016 24.8458ZM123.523 48.2513L122.802 48.618C122.89 48.7484 123.014 48.8567 123.16 48.9305L123.523 48.2513ZM123.756 48.3673L124.565 48.1726C124.488 47.9653 124.323 47.7887 124.11 47.6836L123.756 48.3673ZM122.028 63.9287L121.212 63.6212L122.028 63.9287ZM119.587 71.2922L118.752 71.0443C118.686 71.2922 118.762 71.5648 118.956 71.7716C119.149 71.9784 119.435 72.0923 119.717 72.0753L119.587 71.2922ZM138.748 70.1408L138.879 70.9239C139.101 70.9105 139.301 70.8171 139.436 70.6637L138.748 70.1408ZM149.803 48.5601C148.506 49.4869 147.083 50.1557 145.583 50.6146L146.253 52.1077C147.907 51.6015 149.488 50.86 150.932 49.8285L149.803 48.5601ZM149.431 25.3713C152.44 28.1618 154.997 32.231 155.566 36.4536C156.13 40.632 154.759 45.0189 149.803 48.5601L150.932 49.8285C156.32 45.9784 157.904 41.0939 157.27 36.3972C156.643 31.7448 153.852 27.3354 150.6 24.3202L149.431 25.3713ZM124.244 47.8845C119.804 41.2747 118.925 36.3239 119.991 32.6952C121.057 29.0635 124.127 26.5653 128.045 25.0099C131.963 23.4544 136.644 22.8807 140.729 23.0553C142.769 23.1425 144.634 23.4154 146.161 23.832C147.709 24.2546 148.814 24.7996 149.431 25.3713L150.6 24.3202C149.652 23.4405 148.191 22.7879 146.517 22.3309C144.821 21.868 142.808 21.5794 140.659 21.4875C136.367 21.304 131.429 21.9016 127.248 23.5612C123.067 25.221 119.559 27.9818 118.33 32.1673C117.1 36.3556 118.209 41.7801 122.802 48.618L124.244 47.8845ZM124.11 47.6836C124.034 47.6461 123.959 47.6089 123.886 47.572L123.16 48.9305C123.239 48.9705 123.319 49.0106 123.401 49.051L124.11 47.6836ZM122.844 64.2361C124.871 58.7349 126.697 53.8619 124.565 48.1726L122.946 48.562C124.854 53.6535 123.273 58.0274 121.212 63.6212L122.844 64.2361ZM120.422 71.5401C121.13 68.8899 122.01 66.5015 122.844 64.2361L121.212 63.6212C120.379 65.881 119.478 68.3251 118.752 71.0443L120.422 71.5401ZM138.618 69.3577L119.456 70.5091L119.717 72.0753L138.879 70.9239L138.618 69.3577ZM145.059 51.3025C145.151 57.865 143.215 63.7479 138.061 69.6179L139.436 70.6637C144.815 64.538 146.873 58.3293 146.776 51.4198L145.059 51.3025Z" fill="black"/>
<path d="M120.085 32.0101C117.087 35.5086 120.317 44.1493 122.699 46.3105C102.955 37.1226 115.455 16.3925 121.547 20.1727C122.54 12.5085 133.026 9.80441 140.174 16.2863C158.097 4.14815 159.04 24.8312 152.714 27.9766C146.388 31.122 138.713 28.1266 134.73 29.7486C130.747 31.3706 128.289 41.1956 126.999 35.7426C125.709 30.2895 123.833 27.6369 120.085 32.0101Z" fill="#00ADB5" stroke="black" stroke-width="1.64486"/>
<path d="M156.754 147.43C177.049 136.11 169.096 97.4921 166.019 85.3821C165.395 82.9255 164.454 80.5715 163.328 78.2881C155.629 62.6786 139.389 50.9722 122.948 55.8889C78.263 69.2518 84.5657 122.269 84.9515 147.804L156.754 147.43Z" fill="#EEEEEE" stroke="black" stroke-width="1.64486" stroke-linejoin="round"/>
<path d="M218.917 93.5307L202.329 76.5545L146.439 109.348L128.375 78.8544L104.985 109.348C104.985 109.348 130.325 142.353 143.197 141.394C166.655 139.647 218.917 93.5307 218.917 93.5307Z" fill="#EEEEEE"/>
<path d="M129.613 81.0798L146.281 108.412L202.328 76.5554L218.916 93.5315C218.916 93.5315 169.649 139.362 140.859 141.507C131.798 142.182 105.4 109.018 105.4 109.018" stroke="black" stroke-width="1.64486"/>
<path d="M207.797 73.5167L201.274 77.0278L217.766 94.5511L221.953 91.706C227.954 87.6293 229.146 80.2857 224.585 75.502C220.593 71.3152 213.455 70.4711 207.797 73.5167Z" fill="#F5B9AB" stroke="black" stroke-width="1.64486" stroke-linejoin="round"/>
<path d="M197.496 266.214L169.134 278.615L174.013 294.112L211.883 274.553L200.74 275.822L197.496 266.214Z" fill="#EEEEEE" stroke="black" stroke-width="1.39887" stroke-linejoin="round"/>
</svg>
