<svg width="153" height="116" viewBox="0 0 153 116" fill="none" xmlns="http://www.w3.org/2000/svg">
<path d="M19.8049 69.8232C37.9772 61.2806 53.4453 48.7889 68.9039 36.9114C81.0536 27.5763 93.7267 18.2772 106.864 9.92429C109.456 8.2761 113.233 5.12037 116.313 5.94018C119.365 6.75256 120.774 9.73711 123.052 11.3428C128.662 15.2971 133.496 20.3555 137.88 25.2497C142.705 30.6374 133.748 34.9214 127.948 39.4521C121.361 44.5985 115.022 49.8548 107.957 54.5361C101.242 58.9859 95.5454 64.7205 89.2847 69.6078C79.743 77.0561 70.7018 84.8607 61.1842 92.3128C55.5185 96.749 49.1959 100.561 43.7009 105.113C41.7755 106.708 39.9172 108.739 37.7592 110.129C36.0261 111.246 34.3096 107.891 33.8336 107.276C30.055 102.396 23.5528 99.4961 19.9028 94.3579C17.608 91.1273 16.3407 86.965 13.4538 84.1034C12.0756 82.7373 8.57666 79.7068 10.6359 77.2552C12.7384 74.7521 17.9513 73.0818 20.9406 71.123C23.2708 69.596 26.1069 67.7154 28.6796 66.5469C30.5494 65.6978 32.4566 64.3502 34.1715 63.2848C38.6844 60.4809 34.1075 61.9759 31.1543 63.1607" stroke="#00ADB5" stroke-opacity="0.5" stroke-linecap="round" stroke-linejoin="round"/>
<path d="M20.9683 80.1045C30.7426 84.1576 39.1099 90.6701 46.2697 97.2152C46.4511 97.381 48.2908 98.276 47.9289 98.7241C47.2303 99.5891 40.916 96.7445 40.3151 96.456" stroke="#00ADB5" stroke-opacity="0.5" stroke-linecap="round" stroke-linejoin="round"/>
<path d="M32.4316 71.3784C40.6734 72.3859 45.2284 75.549 51.5473 78.7714C54.362 80.2067 57.2576 81.4624 59.7151 83.2457C60.8691 84.0832 61.6083 85.2734 62.6534 86.1987C64.0858 87.467 57.8478 85.0782 57.1119 84.805" stroke="#00ADB5" stroke-opacity="0.5" stroke-linecap="round" stroke-linejoin="round"/>
<path d="M45.6208 64.1323C50.9772 67.7902 56.3732 71.3848 61.9407 74.8479C64.0558 76.1635 66.5046 77.3141 68.2623 78.9457C71.3826 81.8422 67.2906 78.0885 65.8667 77.059" stroke="#00ADB5" stroke-opacity="0.5" stroke-linecap="round" stroke-linejoin="round"/>
<path d="M54.5435 59.0747C58.6623 60.7408 62.9874 62.3181 66.324 64.8132C67.6927 65.8367 68.7701 67.103 70.2571 68.0266C72.0891 69.1644 73.6387 70.5575 75.4893 71.6556C78.1245 73.2192 78.4835 73.7217 75.3706 71.7374" stroke="#00ADB5" stroke-opacity="0.5" stroke-linecap="round" stroke-linejoin="round"/>
<path d="M66.1897 51.5229C70.6385 54.046 74.7173 56.6574 78.2734 59.9448C79.8483 61.4007 81.0371 63.1519 83.1518 64.1673C85.0891 65.0977 86.5138 65.2696 84.3197 63.6509" stroke="#00ADB5" stroke-opacity="0.5" stroke-linecap="round" stroke-linejoin="round"/>
<path d="M77.4517 43.895C81.3838 46.0088 85.2868 47.9034 88.2509 50.8612C89.6079 52.2152 90.6025 53.8348 92.1593 55.0495C95.3206 57.5161 93.0733 56.3459 90.7687 54.6895" stroke="#00ADB5" stroke-opacity="0.5" stroke-linecap="round" stroke-linejoin="round"/>
<path d="M87.9421 36.1138C93.324 40.0764 97.6159 44.9429 103.016 48.8474C106.653 51.4765 101.515 47.1864 100.685 46.415" stroke="#00ADB5" stroke-opacity="0.5" stroke-linecap="round" stroke-linejoin="round"/>
<path d="M100.353 29.4719C105.659 27.2377 111.198 24.6625 114.492 20.286C115.4 19.0791 116.504 17.9934 116.99 16.6936C117.656 14.9086 117.469 15.6632 115.711 16.9669" stroke="#00ADB5" stroke-opacity="0.5" stroke-linecap="round" stroke-linejoin="round"/>
<path d="M107.742 34.1607C112.182 30.7083 117.135 26.9257 120.613 22.785C122.348 20.7198 125.471 18.0862 121.173 21.2737" stroke="#00ADB5" stroke-opacity="0.5" stroke-linecap="round" stroke-linejoin="round"/>
<path d="M119.76 39.009C123.871 35.3956 127.547 32.0514 131.387 28.3243C132.627 27.1201 136.143 25.3441 132.029 26.6501" stroke="#00ADB5" stroke-opacity="0.5" stroke-linecap="round" stroke-linejoin="round"/>
<path d="M117.07 37.7167C121.274 34.6433 126.041 31.0793 129.546 27.4005C130.481 26.4192 131.243 25.3573 132.114 24.3488C133.574 22.6596 133.58 23.1741 131.671 23.5446" stroke="#00ADB5" stroke-opacity="0.5" stroke-linecap="round" stroke-linejoin="round"/>
<path d="M30.581 84.2856C50.5615 75.9016 57.6364 58.4278 74.5447 47.1003C76.6015 45.7223 78.3209 44.2541 80.6426 43.1998C82.195 42.4947 84.0552 42.0322 85.4961 41.1911C86.375 40.678 93.7691 35.7301 88.7947 37.9892" stroke="#00ADB5" stroke-opacity="0.5" stroke-linecap="round" stroke-linejoin="round"/>
<path d="M22.3136 80.7505C24.7503 78.413 26.9043 76.4046 29.8363 74.583C30.3172 74.2842 31.0116 74.1651 31.4248 73.7917C32.2435 73.052 33.479 71.9663 33.8774 71.0858C35.4465 67.6183 40.7524 67.6328 43.8491 65.6355C46.7949 63.7355 49.6419 61.8272 52.6381 59.9403C55.9391 57.8614 57.5664 56.1803 60.3331 53.6804C62.8746 51.3841 65.3533 49.0717 68.0117 46.8695C70.1864 45.0679 73.4578 43.2845 74.9838 41.1195C76.7061 38.6761 80.6585 35.6578 83.8292 35.7198C84.9183 35.7412 92.5402 38.6272 87.5508 36.7948" stroke="#00ADB5" stroke-opacity="0.5" stroke-linecap="round" stroke-linejoin="round"/>
<path d="M38.4687 86.9875C53.6782 79.2866 63.4979 65.1106 74.5949 53.99C78.6823 49.894 84.1301 46.8662 88.3755 42.8158C90.1914 41.0833 93.9537 39.0378 89.8416 39.5245" stroke="#00ADB5" stroke-opacity="0.5" stroke-linecap="round" stroke-linejoin="round"/>
<path d="M43.073 90.1756C56.9816 82.284 66.9806 69.3799 77.7692 58.833C82.6774 54.0347 87.4482 49.1628 92.4044 44.3938C94.6641 42.2195 98.2999 40.6121 93.5738 43.1085" stroke="#00ADB5" stroke-opacity="0.5" stroke-linecap="round" stroke-linejoin="round"/>
<path d="M47.2637 96.3163C56.2707 89.0381 63.7835 81.4314 71.4532 73.3205C76.1169 68.3886 80.3102 62.9623 85.6156 58.3977C88.6597 55.7787 91.1326 52.8341 93.9453 50.104C95.0784 49.0041 95.9256 47.7756 97.0851 46.681C99.697 44.2152 97.8122 46.3924 96.0408 47.7697" stroke="#00ADB5" stroke-opacity="0.5" stroke-linecap="round" stroke-linejoin="round"/>
<path d="M48.7854 98.8937C53.2696 95.2575 59.6169 91.5302 62.8878 87.0985C64.0753 85.4895 67.0014 81.5983 68.8275 80.4906C71.2416 79.0264 72.6708 76.3264 74.5311 74.5207C76.4683 72.6404 78.364 70.8048 80.4345 68.9908C82.376 67.2897 83.2988 64.5824 85.6232 63.0453C88.2125 61.3329 89.6859 58.9662 91.8311 57.0279C93.6878 55.3502 97.042 53.4517 99.2464 52.0821C100.468 51.3233 101.379 50.3733 102.73 49.7598C105.468 48.5163 103.709 49.1928 101.334 49.3882" stroke="#00ADB5" stroke-opacity="0.5" stroke-linecap="round" stroke-linejoin="round"/>
<path d="M99.8599 30.7017C103.104 31.0361 107.158 31.0613 110 32.1854C111.835 32.9108 113.414 33.6684 110.074 32.3475" stroke="#00ADB5" stroke-opacity="0.5" stroke-linecap="round" stroke-linejoin="round"/>
<path d="M103.957 25.8247C108.586 26.2927 111.799 27.0385 115.404 28.6421C117.761 29.6906 117.404 29.3671 114.934 28.3805" stroke="#00ADB5" stroke-opacity="0.5" stroke-linecap="round" stroke-linejoin="round"/>
<path d="M110.37 20.6494C114.207 22.043 117.887 23.7031 121.896 24.8415C124.255 25.5111 122.957 25.5911 121.139 25.06" stroke="#00ADB5" stroke-opacity="0.5" stroke-linecap="round" stroke-linejoin="round"/>
<path d="M114.17 16.6616C118.256 17.7562 122.006 18.882 125.694 20.4215C127.376 21.1235 125.727 21.3657 124.458 20.7874" stroke="#00ADB5" stroke-opacity="0.5" stroke-linecap="round" stroke-linejoin="round"/>
<path d="M102.191 28.8885C105.878 25.4137 109.551 22.1008 112.957 18.5808C113.924 17.5808 119.752 11.9634 117.177 14.7927" stroke="#00ADB5" stroke-opacity="0.5" stroke-linecap="round" stroke-linejoin="round"/>
<path d="M104.849 33.9661C109.5 30.4826 116.159 25.787 118.151 21.1378C118.737 19.7696 119.793 18.3494 121.198 17.2961C122.622 16.2278 124.035 15.6592 121.883 17.4319" stroke="#00ADB5" stroke-opacity="0.5" stroke-linecap="round" stroke-linejoin="round"/>
<path d="M101.468 34.2446C106.526 29.8296 110.749 26.7699 113.969 21.6683C114.805 20.3434 115.709 19.2217 116.933 18.1157C118.23 16.9437 120.02 15.7817 117.535 17.898" stroke="#00ADB5" stroke-opacity="0.5" stroke-linecap="round" stroke-linejoin="round"/>
<path d="M117.969 34.292C119.9 35.119 121.847 35.8677 123.884 36.5077C124.725 36.772 123.72 36.1907 123.357 36.1187" stroke="#00ADB5" stroke-opacity="0.5" stroke-linecap="round" stroke-linejoin="round"/>
<path d="M122.749 28.6025C122.876 28.6828 130.262 33.3983 128.988 32.3048" stroke="#00ADB5" stroke-opacity="0.5" stroke-linecap="round" stroke-linejoin="round"/>
<path d="M127.885 26.0181C129.493 27.2109 134.445 30.6717 132.678 29.6231" stroke="#00ADB5" stroke-opacity="0.5" stroke-linecap="round" stroke-linejoin="round"/>
<path d="M115.245 36.7861C118.544 34.2147 125.711 29.0492 127.795 25.431C128.616 24.0051 131.755 21.9395 128.771 24.1075" stroke="#00ADB5" stroke-opacity="0.5" stroke-linecap="round" stroke-linejoin="round"/>
<path d="M115.528 37.4111C115.787 37.562 120.81 41.8709 122.363 39.3349C123.155 38.0405 124.187 36.3546 125.806 35.5086C128.647 34.0246 129.66 30.239 132.539 28.9316C135.805 27.4485 135.78 25.5774 132.98 25.2263C131.879 25.0883 133.027 23.1857 131.827 23.4596C130.728 23.7102 130.2 23.4534 128.966 23.7669" stroke="#00ADB5" stroke-opacity="0.5" stroke-linecap="round" stroke-linejoin="round"/>
<path d="M99.5757 30.0762C101.116 32.868 101.334 33.9184 104.321 34.8202C105.127 35.0636 106.306 34.4688 106.917 34.6606C108.125 35.0403 110.656 34.7677 111.745 33.711C113.934 31.5862 114.813 30.2745 117.922 28.7831C119.883 27.8422 121.618 25.9459 122.678 24.4164C123.843 22.7354 125.711 21.3579 126.929 19.665C127.447 18.9441 124.258 17.5942 124.39 16.433C124.427 16.1037 120.355 16.5499 119.716 16.3491C118.941 16.1058 118.63 15.6753 118.334 15.0216C117.9 14.0667 116.703 15.4466 115.143 15.7164" stroke="#00ADB5" stroke-opacity="0.5" stroke-linecap="round" stroke-linejoin="round"/>
<path d="M26.4089 75.8735C30.8397 76.77 34.6214 78.1421 38.5068 79.6943C41.88 81.0419 45.8377 81.518 49.1955 82.8143C51.586 83.7372 53.8571 86.2009 55.4931 87.8029C56.0382 88.3366 56.4294 88.8494 56.7809 89.4805C57.5872 90.9282 57.0479 87.2703 56.9971 86.8685" stroke="#00ADB5" stroke-opacity="0.5" stroke-linecap="round" stroke-linejoin="round"/>
<path d="M75.0515 42.4707C76.1839 43.4107 80.5474 48.8115 80.1484 44.4294" stroke="#00ADB5" stroke-opacity="0.5" stroke-linecap="round" stroke-linejoin="round"/>
</svg>
