<svg width="75" height="72" viewBox="0 0 75 72" fill="none" xmlns="http://www.w3.org/2000/svg">
<path d="M10.2413 27.3976C18.2011 23.2811 26.3169 17.8983 33.4336 12.3944C37.2417 9.44928 41.3399 6.92394 45.0251 3.8754C45.5445 3.44578 46.8234 1.41972 47.5947 2.08347C48.8121 3.13113 49.992 4.95045 50.7364 6.36626C52.8989 10.479 55.8827 14.6062 58.9394 18.0698C61.3641 20.8172 63.3329 23.1376 65.1762 26.3303C66.1844 28.0765 68.6879 30.4595 68.5084 32.4009C68.0079 37.8133 62.9504 42.8263 59.4793 46.3674C54.3787 51.5707 49.3816 56.8 43.3164 60.7993C39.5542 63.28 35.3125 64.5901 31.4647 66.8116C27.9203 68.858 28.2113 68.5834 24.8358 65.6097C21.5111 62.6808 19.4539 59.5027 17.1983 55.596C16.0241 53.5622 13.9249 51.806 12.292 50.1258C11.0552 48.8532 10.6058 46.6805 9.93937 45.079C9.24038 43.3994 9.30165 38.5827 7.76759 37.5794C6.26399 36.5959 4.51948 34.4341 4.94152 32.4976C5.28612 30.9164 18.4539 21.6477 7.45661 31.9944" stroke="#00ADB5" stroke-opacity="0.5" stroke-linecap="round" stroke-linejoin="round"/>
<path d="M6.05118 34.941C9.04701 36.3958 11.9623 38.4849 14.9284 39.8503C15.9142 40.3041 17.5965 40.2189 18.3917 40.8398C20.5443 42.5207 26.7613 41.5 29.4014 41.7424C32.3816 42.016 40.5488 46.104 41.6438 41.0793C43.7023 31.6339 46.0061 22.2315 48.0563 12.8243C48.4437 11.047 47.9205 9.29232 48.2742 7.6694C49.3509 2.72895 44.6108 5.84655 43.0081 6.77189" stroke="#00ADB5" stroke-opacity="0.5" stroke-linecap="round" stroke-linejoin="round"/>
</svg>
