<svg width="734" height="494" viewBox="0 0 734 494" fill="none" xmlns="http://www.w3.org/2000/svg">
<g clip-path="url(#clip0_29_11209)">
<path d="M255.027 473.201C254.443 473.227 253.865 473.076 253.371 472.768C252.877 472.461 252.491 472.011 252.265 471.48C252.04 470.948 251.986 470.362 252.11 469.799C252.234 469.237 252.531 468.726 252.96 468.335L253.156 467.57C253.13 467.509 253.104 467.448 253.078 467.387C252.49 466.018 251.504 464.852 250.244 464.033C248.985 463.215 247.508 462.781 245.999 462.787C244.49 462.792 243.016 463.237 241.763 464.064C240.51 464.892 239.533 466.066 238.955 467.438C236.645 472.916 233.704 478.404 232.979 484.196C232.66 486.756 232.795 489.352 233.377 491.867C227.952 480.213 225.134 467.547 225.116 454.728C225.115 451.511 225.296 448.296 225.66 445.099C225.96 442.479 226.377 439.876 226.91 437.293C229.818 423.275 236.061 410.136 245.127 398.955C249.515 396.598 253.064 392.973 255.295 388.568C256.104 386.985 256.675 385.295 256.991 383.55C256.496 383.614 255.125 376.191 255.498 375.736C254.808 374.705 253.574 374.193 252.82 373.187C249.073 368.185 243.911 369.058 241.216 375.856C235.459 378.717 235.403 383.461 238.936 388.025C241.183 390.928 241.492 394.856 243.464 397.965C243.261 398.22 243.05 398.468 242.847 398.724C239.139 403.419 235.906 408.461 233.197 413.778C233.856 407.822 233.069 401.797 230.902 396.199C228.706 390.982 224.589 386.588 220.963 382.077C216.609 376.66 207.679 379.024 206.912 385.892C206.904 385.958 206.897 386.025 206.89 386.091C207.429 386.39 207.956 386.708 208.472 387.044C209.119 387.47 209.622 388.079 209.912 388.791C210.202 389.503 210.268 390.285 210.099 391.034C209.93 391.783 209.536 392.464 208.967 392.989C208.399 393.513 207.682 393.857 206.912 393.973L206.833 393.985C207.025 395.896 207.364 397.79 207.848 399.651C203.197 417.361 213.238 423.811 227.575 424.101C227.891 424.261 228.2 424.421 228.516 424.572C225.794 432.169 224.086 440.082 223.436 448.112C223.068 452.849 223.09 457.608 223.501 462.343L223.477 462.175C222.438 456.911 219.586 452.161 215.403 448.727C209.189 443.701 200.41 441.85 193.707 437.811C192.995 437.36 192.166 437.12 191.32 437.118C190.473 437.116 189.643 437.352 188.929 437.799C188.214 438.246 187.644 438.885 187.286 439.64C186.928 440.396 186.797 441.236 186.908 442.063C186.917 442.121 186.926 442.18 186.936 442.239C187.935 442.64 188.908 443.101 189.849 443.621C190.387 443.92 190.915 444.238 191.43 444.574C192.078 445 192.58 445.609 192.871 446.321C193.161 447.033 193.226 447.815 193.058 448.564C192.889 449.313 192.495 449.994 191.926 450.519C191.357 451.044 190.641 451.387 189.871 451.504L189.792 451.516C189.735 451.524 189.687 451.532 189.63 451.54C191.337 455.554 193.734 459.249 196.714 462.462C199.622 477.923 212.112 479.39 225.473 474.887H225.481C226.947 481.16 229.071 487.265 231.819 493.105H254.459C254.541 492.857 254.614 492.602 254.687 492.354C252.591 492.484 250.487 492.36 248.422 491.987C250.102 489.957 251.782 487.911 253.461 485.882C253.499 485.844 253.534 485.804 253.567 485.762C254.419 484.723 255.279 483.693 256.131 482.654L256.132 482.653C256.177 479.469 255.806 476.292 255.028 473.201L255.027 473.201Z" fill="#F2F2F2"/>
<path d="M80.8839 439.483L87.1308 445.984L116.137 424.824L106.918 415.229L80.8839 439.483Z" fill="#A0616A"/>
<path d="M91.1206 443.079L84.0485 436.537L82.3118 434.935L64.3074 449.109L68.9909 453.983L74.5037 450.502L71.9711 457.085L84.3885 470.008C84.9835 470.627 85.7641 471.044 86.6164 471.196C87.4686 471.348 88.348 471.228 89.126 470.853C89.9041 470.478 90.5401 469.868 90.9413 469.113C91.3425 468.357 91.4878 467.494 91.3561 466.651L88.6762 449.58L93.3986 445.182L91.1206 443.079Z" fill="#2F2E41"/>
<path d="M218.174 202.781L216.193 224.071C216.193 224.071 212.736 240.111 215.13 238.811C217.524 237.511 213.232 243.362 214.362 248.436C215.493 253.511 204.707 291.351 209.592 287.431C214.477 283.511 206.769 310.591 201.894 323.951C200.401 328.081 198.867 332.261 197.324 336.411C197.019 337.251 196.714 338.081 196.4 338.921C194.399 344.321 192.398 349.641 190.479 354.661C190.205 355.361 189.94 356.061 189.676 356.751C189.666 356.771 189.666 356.791 189.656 356.791C183.339 373.161 177.926 386.041 175.763 388.171C174.635 389.281 156.751 402.002 138.724 414.741C119.804 428.112 100.731 441.512 100.731 441.512L82.9172 423.112C82.9172 423.112 83.3437 422.991 84.1461 422.752C85.6289 422.331 88.3711 421.541 91.9664 420.491C106.956 416.141 87.9139 409.371 101.523 404.531C105.362 403.171 107.921 402.111 108.5 401.551C111.882 398.301 116.422 390.551 118.565 393.801C120.707 397.051 130.427 372.901 133.23 370.511C134.733 369.221 139.638 363.191 143.843 357.891C147.458 353.331 150.566 349.301 150.566 349.301C150.566 349.301 150.627 347.141 150.718 343.701C150.85 338.611 151.043 330.701 151.247 322.781C151.236 322.771 151.236 322.771 151.247 322.771C151.318 319.791 151.388 316.811 151.46 313.981C151.51 311.791 151.561 309.681 151.612 307.731C151.744 301.891 151.835 297.471 151.835 296.371C151.835 292.761 151.835 295.571 154.73 293.391C155.162 293.057 155.573 292.696 155.959 292.311C156.578 291.762 157.148 291.163 157.665 290.521C157.878 290.071 156.548 290.681 154.821 290.341C153.886 290.156 153.021 289.72 152.323 289.081C148.687 285.861 152.607 275.961 152.607 275.961C144.34 259.681 144.94 246.331 148.809 236.04C151.702 228.656 156.294 222.033 162.225 216.691C164.482 214.573 166.941 212.674 169.568 211.02L169.822 209.671L172.615 194.781C174.1 193.977 175.645 193.285 177.235 192.711C182.196 190.958 187.519 190.436 192.733 191.191C197.915 191.929 202.933 193.528 207.571 195.921C211.363 197.796 214.921 200.098 218.174 202.781Z" fill="#2F2E41"/>
<path d="M140.172 472.653L149.222 473.482L156.848 438.738L143.49 437.515L140.172 472.653Z" fill="#A0616A"/>
<path d="M166.236 486.272L152.79 475.182L153.399 468.802L150.272 468.702L140.583 468.392H140.572L138.196 468.312L134.164 490.652L140.958 491.272L142.756 485.072L145.265 491.672L148.86 492.002L163.251 493.322C163.373 493.332 163.505 493.342 163.626 493.342C164.199 493.343 164.764 493.223 165.286 492.992C165.808 492.761 166.274 492.424 166.653 492.002C167.242 491.367 167.602 490.559 167.678 489.702C167.738 489.058 167.638 488.409 167.387 487.812C167.135 487.214 166.741 486.686 166.236 486.272Z" fill="#2F2E41"/>
<path d="M190.479 354.661C187.036 373.112 172.462 416.372 163.647 441.692C159.635 453.262 156.832 461.092 156.832 461.092L152.262 459.672H152.252L144.523 457.272L141.71 456.392H141.699L138.287 455.322C138.287 455.322 138.683 434.662 138.724 414.742C138.754 406.391 138.714 398.161 138.552 391.641C138.369 384.532 138.054 379.442 137.536 378.431C135.393 374.291 138.978 373.851 142.766 372.811C146.564 371.761 143.599 370.181 142.126 366.821C141.131 364.581 143.091 361.591 144.482 359.891C144.866 359.413 145.277 358.955 145.711 358.521C145.711 358.521 145.041 358.291 143.843 357.891C147.458 353.331 150.566 349.301 150.566 349.301C150.566 349.301 150.627 347.141 150.718 343.701C150.85 338.611 151.043 330.701 151.246 322.781C151.236 322.771 151.236 322.771 151.246 322.771C151.317 319.791 151.388 316.811 151.46 313.981C157.269 318.371 162.915 322.671 168.034 326.651C168.04 326.656 168.045 326.662 168.049 326.669C168.052 326.676 168.054 326.684 168.054 326.691C180.353 336.261 189.585 343.941 190.885 346.381C191.474 347.481 191.271 350.422 190.479 354.661Z" fill="#2F2E41"/>
<path d="M493.256 28.8927C494.949 28.7368 496.637 29.2375 497.961 30.2884C499.284 31.3392 500.139 32.8572 500.344 34.5193C500.38 34.8578 500.388 35.1987 500.367 35.5385L521.31 44.3447L520.511 56.3809L493.146 41.2632C491.722 41.0685 490.403 40.4152 489.396 39.4051C488.389 38.3951 487.749 37.0851 487.578 35.6796C487.488 34.879 487.559 34.0687 487.787 33.2951C488.015 32.5216 488.396 31.7998 488.907 31.1711C489.419 30.5424 490.051 30.019 490.768 29.6308C491.485 29.2427 492.272 28.9974 493.085 28.9089C493.142 28.9027 493.199 28.8973 493.256 28.8927Z" fill="#FFB6B6"/>
<path d="M635.745 103.19C635.228 100.857 634.266 98.6409 632.911 96.66C632.535 96.0963 632.125 95.5552 631.683 95.0398C630.038 93.1101 628.504 91.3401 627.082 89.76C626.219 88.7698 625.376 87.8499 624.584 87.0002C619.983 82.03 616.967 79.4001 615.586 79.1799C614.915 79.07 614.255 78.9899 613.615 78.9099C610.335 78.51 607.958 78.2199 607.887 74.8098C607.88 74.3212 607.914 73.8329 607.989 73.3498C608.112 72.5386 608.292 71.7367 608.527 70.9499C608.662 70.5039 608.768 70.0496 608.842 69.59C608.944 69.0001 608.903 68.5597 608.578 68.2897C608.172 67.9601 607.491 68.0099 606.211 68.5099C606.009 68.59 605.775 68.6798 605.531 68.7897C605.45 68.82 605.369 68.86 605.277 68.9C605.115 68.9699 604.932 69.0499 604.749 69.1398C603.216 69.86 600.849 69.9499 598.148 69.6798C590.176 68.88 579.39 64.92 579.258 64.8697L511.335 38.8799L510.706 39.8799L509.212 42.2598L508.695 43.0796L508.106 44.0196L505.536 48.0996L504.236 50.1597L526.173 66.4498L528.559 68.2198L530.611 69.7501L572.494 100.86L588.114 111.01L591.597 113.27L606.445 122.91C608.58 124.298 610.975 125.252 613.489 125.714C616.003 126.176 618.586 126.138 621.086 125.601C623.585 125.064 625.949 124.039 628.04 122.588C630.13 121.137 631.904 119.288 633.257 117.15C635.893 112.991 636.786 107.985 635.745 103.19Z" fill="#E6E6E6"/>
<path d="M732.984 494H1.01559C0.746241 494 0.48792 493.895 0.29746 493.707C0.106999 493.52 0 493.265 0 493C0 492.735 0.106999 492.48 0.29746 492.293C0.48792 492.105 0.746241 492 1.01559 492H732.984C733.254 492 733.512 492.105 733.703 492.293C733.893 492.48 734 492.735 734 493C734 493.265 733.893 493.52 733.703 493.707C733.512 493.895 733.254 494 732.984 494Z" fill="#E6E6E6"/>
<path d="M167.487 166.792L169.39 184.174L168.271 206.966L219.543 200.969L224.36 166.792L218.222 166.852L167.487 166.792Z" fill="#FFB6B6"/>
<path d="M211.099 110.65L191.803 95.6497L181.674 95.0698L166.644 104.551L162.963 123.038L154.259 143.856L167.026 200.038C167.026 200.038 168.223 204.07 165.085 204.554C161.948 205.038 162.324 210.981 162.324 210.981C162.324 210.981 162.963 216.131 159.916 216.585C156.869 217.038 148.745 217.038 155.854 226.039C162.963 235.039 219.192 200.999 219.192 200.999L227.359 158.805C227.359 158.805 243.198 137.858 226.141 125.862L211.099 110.65Z" fill="#E6E6E6"/>
<path d="M126.862 238.209C126.012 237.164 125.404 235.948 125.083 234.648C124.761 233.347 124.733 231.993 125.001 230.68C125.269 229.367 125.825 228.128 126.632 227.051C127.438 225.973 128.475 225.082 129.668 224.441L153.94 144.236L169.117 151.76L142.685 228.636C143.645 230.682 143.809 233.004 143.147 235.161C142.485 237.319 141.042 239.162 139.092 240.342C137.141 241.522 134.819 241.957 132.565 241.564C130.311 241.17 128.282 239.977 126.862 238.209Z" fill="#A0616A"/>
<path d="M170.129 103.808C170.129 103.808 165.791 101.538 162.823 111.362C160.448 119.228 141.17 166.076 140.924 177.466C139.338 177.797 137.908 178.638 136.861 179.857C135.814 181.076 135.208 182.604 135.139 184.199L158.974 187.344C163.139 183.885 164.232 179.213 162.62 177.827L167.795 163.91L189.385 119.63L173.295 105.395L170.129 103.808Z" fill="#E6E6E6"/>
<path d="M297.486 211.845C297.794 210.541 297.807 209.187 297.526 207.877C297.245 206.567 296.675 205.334 295.857 204.264C295.039 203.195 293.994 202.315 292.793 201.686C291.593 201.058 290.267 200.696 288.909 200.627L233.23 138.013L221.419 151.89L279.015 209.951C279.048 212.205 279.919 214.368 281.464 216.032C283.008 217.695 285.119 218.743 287.396 218.976C289.673 219.21 291.957 218.613 293.817 217.299C295.677 215.984 296.982 214.044 297.486 211.845H297.486Z" fill="#A0616A"/>
<path d="M199.447 109.085C199.447 109.085 202.362 105.191 209.352 112.785C214.948 118.866 252.905 152.898 258.129 163.064C259.705 162.686 261.363 162.836 262.843 163.49C264.323 164.143 265.54 165.262 266.302 166.672L246.193 179.656C240.918 178.311 237.881 174.564 238.725 172.627L227.947 162.283L189.033 131.55L197.289 111.863L199.447 109.085Z" fill="#E6E6E6"/>
<path d="M407.077 280.999C485.603 280.999 549.26 218.319 549.26 140.999C549.26 63.6784 485.603 0.998047 407.077 0.998047C328.552 0.998047 264.894 63.6784 264.894 140.999C264.894 218.319 328.552 280.999 407.077 280.999Z" fill="#222831"/>
<path opacity="0.2" d="M400.352 190.549C393.838 196.962 385.004 200.565 375.792 200.565C366.581 200.565 357.746 196.962 351.233 190.549V190.548C345.636 185.035 342.119 177.804 341.265 170.054C340.412 162.303 342.272 154.498 346.539 147.932L338.898 155.608C332.385 162.021 328.725 170.72 328.725 179.79C328.725 188.86 332.385 197.559 338.898 203.972V203.972C345.412 210.386 354.246 213.989 363.457 213.989C372.669 213.989 381.503 210.386 388.017 203.972L404.95 186.66L405.208 185.584L400.352 190.549Z" fill="black"/>
<path opacity="0.2" d="M416.482 83.5912C424.096 78.4855 433.457 76.5668 442.507 78.2573C451.557 79.9479 459.555 85.1091 464.74 92.6057V92.6057C469.196 99.0499 471.282 106.799 470.654 114.571C470.025 122.342 466.72 129.669 461.284 135.337L470.245 129.198C477.858 124.092 483.1 116.217 484.817 107.306C486.534 98.395 484.585 89.1773 479.4 81.6807V81.6806C474.214 74.1841 466.217 69.0228 457.167 67.3323C448.117 65.6418 438.755 67.5605 431.142 72.6662L411.228 86.5679L410.771 87.578L416.482 83.5912Z" fill="black"/>
<path d="M363.458 218.268C355.986 218.268 348.681 216.086 342.469 211.999C336.256 207.911 331.414 202.101 328.554 195.304C325.695 188.507 324.947 181.027 326.404 173.811C327.862 166.595 331.46 159.967 336.744 154.765L368.804 122.557C372.311 119.098 376.476 116.354 381.061 114.481C385.646 112.608 390.56 111.643 395.524 111.641C400.488 111.639 405.403 112.6 409.99 114.469C414.576 116.339 418.743 119.08 422.253 122.536C422.824 123.099 423.145 123.862 423.145 124.657C423.145 125.453 422.824 126.216 422.253 126.778C421.682 127.341 420.907 127.657 420.099 127.657C419.291 127.657 418.516 127.341 417.945 126.778C412.002 120.928 403.943 117.641 395.54 117.641C387.136 117.641 379.077 120.928 373.135 126.778C368.426 143.125 358.251 154.341 341.074 158.986C338.127 161.881 335.788 165.32 334.191 169.105C332.594 172.89 331.77 176.949 331.767 181.048C331.763 185.147 332.58 189.206 334.17 192.994C335.761 196.782 338.094 200.225 341.036 203.125C343.978 206.025 347.472 208.325 351.318 209.895C355.163 211.465 359.285 212.273 363.448 212.273C367.611 212.274 371.734 211.467 375.58 209.898C379.426 208.329 382.92 206.029 385.863 203.13C385.169 196.424 387.159 190.12 402.756 185.857C403.033 185.572 403.365 185.344 403.732 185.185C404.099 185.027 404.494 184.941 404.895 184.933C405.296 184.925 405.694 184.995 406.067 185.139C406.44 185.283 406.781 185.498 407.07 185.772C407.358 186.046 407.589 186.373 407.749 186.734C407.909 187.096 407.995 187.486 408.002 187.88C408.009 188.275 407.937 188.667 407.79 189.034C407.643 189.401 407.423 189.736 407.145 190.019L390.211 207.332C386.709 210.808 382.541 213.564 377.948 215.441C373.356 217.319 368.43 218.279 363.458 218.268Z" fill="white"/>
<path d="M415.508 172.705C410.545 172.718 405.628 171.762 401.043 169.892C396.457 168.021 392.294 165.274 388.794 161.809C388.223 161.246 387.902 160.483 387.902 159.687C387.902 158.892 388.223 158.129 388.795 157.566C389.366 157.004 390.141 156.688 390.949 156.688C391.757 156.688 392.532 157.004 393.104 157.567C396.046 160.464 399.539 162.762 403.383 164.33C407.227 165.898 411.347 166.705 415.508 166.705C419.669 166.705 423.79 165.898 427.634 164.33C431.478 162.762 434.971 160.464 437.913 157.567C441.973 133.482 458.528 130.083 472.917 123.101C475.86 120.204 478.193 116.764 479.786 112.979C481.378 109.194 482.198 105.137 482.198 101.039C482.198 96.9423 481.378 92.8853 479.786 89.1C478.193 85.3147 475.859 81.8754 472.917 78.9782C469.975 76.0811 466.482 73.783 462.637 72.2151C458.793 70.6472 454.673 69.8403 450.512 69.8403C446.351 69.8403 442.231 70.6473 438.386 72.2153C434.542 73.7832 431.049 76.0813 428.107 78.9785C424.104 90.3496 420.174 101.855 408.252 98.5284C407.969 98.8069 407.633 99.0279 407.264 99.1786C406.894 99.3294 406.498 99.407 406.098 99.407C405.29 99.407 404.515 99.091 403.944 98.5284C403.372 97.9659 403.051 97.2029 403.051 96.4073C403.051 95.6117 403.372 94.8487 403.943 94.2861L423.798 74.7362C427.306 71.282 431.471 68.5419 436.054 66.6725C440.638 64.803 445.55 63.8408 450.512 63.8408C455.473 63.8408 460.385 64.803 464.969 66.6723C469.552 68.5417 473.717 71.2818 477.225 74.736C480.733 78.1902 483.516 82.2909 485.415 86.8041C487.313 91.3172 488.29 96.1544 488.29 101.039C488.29 105.924 487.313 110.762 485.415 115.275C483.516 119.788 480.733 123.889 477.225 127.343L442.222 161.809C438.722 165.274 434.559 168.022 429.973 169.892C425.388 171.762 420.471 172.718 415.508 172.705Z" fill="white"/>
<path d="M530.611 69.7504C524.64 59.7645 517.454 50.5329 509.212 42.26C507.374 40.4202 505.475 38.6199 503.535 36.8699C502.459 35.9001 501.372 34.9499 500.265 34.0197C498.163 32.24 496 30.5197 493.796 28.8601C468.9 10.109 438.419 -0.0347964 407.074 8.96833e-05C328.122 8.96833e-05 263.876 63.2503 263.876 141.001C263.872 149.574 264.664 158.129 266.242 166.56C266.244 166.608 266.251 166.654 266.262 166.7C266.984 170.571 267.877 174.39 268.913 178.14C276.251 204.609 291.274 228.395 312.138 246.581C333.003 264.767 358.804 276.564 386.377 280.524C413.95 284.485 442.098 280.438 467.37 268.879C492.641 257.32 513.939 238.752 528.651 215.451C530.631 212.311 532.493 209.09 534.237 205.79C545.357 184.661 550.858 161.101 550.224 137.31C549.59 113.52 542.842 90.2766 530.611 69.7504ZM407.074 280.001C388.534 280.007 370.174 276.416 353.044 269.433C335.914 262.45 320.35 252.212 307.24 239.303C294.13 226.394 283.732 211.068 276.64 194.201C269.548 177.334 265.901 159.256 265.907 141.001C265.907 64.35 329.239 2.0001 407.074 2.0001C425.91 2.01061 444.554 5.73393 461.905 12.9506C479.257 20.1673 494.966 30.7312 508.106 44.0198C511.533 47.4644 514.767 51.0899 517.794 54.8802C520.792 58.5891 523.589 62.4511 526.173 66.4501C536.947 83.1152 543.987 101.851 546.824 121.408C549.661 140.964 548.23 160.892 542.625 179.861C541.376 184.1 539.914 188.251 538.268 192.321C536.613 196.401 534.775 200.401 532.744 204.281C520.866 227.038 502.859 246.14 480.694 259.495C458.529 272.85 433.06 279.944 407.074 280.001Z" fill="#3F3D56"/>
<path d="M601.877 472.971L592.543 472.893L588.41 436.614L602.188 436.729L601.877 472.971Z" fill="#FFB6B6"/>
<path d="M604.353 468.732L601.916 468.572L591.973 467.902L588.774 467.692L588.713 474.262L573.804 484.222C573.068 484.714 572.511 485.426 572.214 486.252C571.917 487.079 571.897 487.977 572.156 488.816C572.414 489.654 572.938 490.39 573.651 490.914C574.365 491.439 575.229 491.725 576.119 491.732L594.674 491.882L597.924 485.402L599.113 491.922L606.12 491.982L604.353 468.732Z" fill="#2F2E41"/>
<path d="M700.157 466.255L691.235 468.956L676.174 435.598L689.343 431.612L700.157 466.255Z" fill="#FFB6B6"/>
<path d="M701.22 461.481L698.844 462.052L689.166 464.362L686.047 465.112L688.007 471.402L676.846 485.322C676.361 485.929 676.06 486.657 675.976 487.425C675.892 488.192 676.029 488.967 676.371 489.662C676.713 490.356 677.247 490.942 677.911 491.352C678.575 491.762 679.343 491.98 680.126 491.982C680.539 491.981 680.95 491.92 681.345 491.802L699.087 486.432L700.194 479.282L703.332 485.142L710.026 483.112L701.22 461.481Z" fill="#2F2E41"/>
<path d="M583.101 167.917L565.288 218.891L564.699 222.97C560.211 227.166 565.85 228.548 563.735 229.655C561.621 230.762 560.199 233.864 563.048 234.418C565.898 234.973 575.083 433.792 587.2 441.512C599.316 449.231 606.69 454.815 604.465 443.512C603.568 438.957 604.837 414.54 606.671 387.004C606.879 383.883 610.163 380.58 607.314 377.546C604.465 374.511 607.665 372.515 607.844 369.997C610.399 334.04 613.35 298.541 613.35 298.541C613.35 298.541 632.234 362.398 637.138 357.455C642.042 352.511 640.101 364.682 641.599 368.319C642.852 371.359 637.509 377.328 645.361 377.42C653.213 377.511 671.654 439.582 673.525 439.512C677.232 439.372 687.65 439.766 693.837 438.512C696.892 437.892 683.33 390.899 672.006 350.318C671.103 347.082 666.187 347.007 669.349 340.759C672.51 334.511 656.781 294.085 658.131 292.215C661.713 287.252 663.078 285.095 659.545 284.77C656.011 284.445 654.968 286.354 654.777 281.54C654.586 276.725 653.976 264.854 653.976 264.854C653.976 264.854 651.417 217.905 633.496 191.967L631.967 176.555L583.101 167.917Z" fill="#2F2E41"/>
<path d="M627.605 70.5942L603.982 73.9063L602.556 90.7494L590.899 108.705C590.899 108.705 564.987 126.66 583.058 155.023C576.181 179.456 569.344 202.889 562.825 218.511C557.747 249.511 603.239 252.482 655.244 241.511C655.244 241.511 654.527 228.256 649.808 221.883C645.089 215.511 647.658 214.119 647.658 214.119L644.36 202.214C646.226 185.006 639.925 183.461 636.964 175.511L645.954 93.0157L627.605 70.5942Z" fill="#E6E6E6"/>
<path d="M514.2 214.787C514.45 213.131 515.347 211.636 516.699 210.621C518.051 209.606 519.753 209.151 521.441 209.352C521.783 209.398 522.121 209.472 522.451 209.573L536.135 191.649L547.815 195.286L526.374 217.844C525.842 219.16 524.883 220.264 523.646 220.986C522.409 221.709 520.965 222.007 519.538 221.836C518.727 221.731 517.945 221.469 517.236 221.066C516.528 220.664 515.907 220.127 515.409 219.488C514.911 218.849 514.545 218.12 514.334 217.342C514.122 216.564 514.068 215.752 514.175 214.953C514.182 214.898 514.191 214.842 514.2 214.787Z" fill="#FFB6B6"/>
<path d="M635.745 103.19C635.41 102.78 635.044 102.38 634.658 101.99C631.976 99.2681 628.521 97.4069 624.747 96.6504C620.972 95.8939 617.053 96.2773 613.503 97.7504C613.158 97.8901 612.813 98.0502 612.478 98.2104C600.341 104.08 593.791 107.99 592.999 109.82C592.724 110.44 592.491 111.05 592.257 111.64C592.034 112.22 591.82 112.77 591.597 113.27C590.663 115.41 589.586 116.74 586.844 116.14C585.935 115.921 585.058 115.589 584.234 115.15C583.858 114.97 583.513 114.78 583.188 114.6C582.01 113.96 581.157 113.501 580.578 113.92C580.02 114.33 579.999 115.37 580.507 117.78C580.675 118.786 580.647 119.814 580.426 120.81C579.754 123.715 578.703 126.522 577.298 129.16C575.192 133.296 572.825 137.297 570.209 141.14L546.048 175.06L544.413 177.35L542.625 179.861L528.366 199.881L529.209 200.73L532.744 204.281L533.526 205.071L534.237 205.79L536.075 207.64L537.801 209.37L576.323 178.47L580.619 175.02L588.317 168.841L604.089 156.191L633.937 128.99C635.821 127.287 637.337 125.227 638.393 122.932C639.448 120.638 640.023 118.158 640.081 115.64C640.081 115.47 640.092 115.31 640.092 115.14C640.103 110.78 638.565 106.552 635.745 103.19Z" fill="#E6E6E6"/>
<path d="M613.423 69.9809C628.001 69.9809 639.82 58.344 639.82 43.989C639.82 29.6341 628.001 17.9971 613.423 17.9971C598.844 17.9971 587.025 29.6341 587.025 43.989C587.025 58.344 598.844 69.9809 613.423 69.9809Z" fill="#FFB6B6"/>
<path d="M648.405 80.0309C651.948 85.0234 654.317 90.7297 655.342 96.736C652.487 98.5345 649.164 99.4791 645.774 99.4554C645.659 99.0184 645.544 98.5813 645.413 98.1443C644.431 94.7599 642.97 91.5286 641.073 88.5453C641.333 91.7623 640.89 94.9967 639.774 98.031C637.983 97.2295 636.064 96.742 634.103 96.5904C632.505 96.5902 630.929 96.956 629.499 97.6587C627.839 92.236 626.31 87.2504 625.225 83.673C625.192 92.6407 611.844 100.459 597.278 99.326C596.752 99.0022 602.029 84.2558 601.52 83.9158C600.352 83.1551 599.218 82.3295 598.084 81.5202C602.851 74.2683 608.03 66.4985 607.142 65.3331C607.208 66.7738 601.98 73.7018 596.292 80.2413C593.135 77.959 611.071 40.8258 602.21 37.8151C602.062 39.1262 600.106 39.1262 597.722 38.8511C597.093 36.6877 596.158 34.6224 594.944 32.716C595.102 34.6363 594.867 36.5683 594.253 38.3977C591.9 38.3984 589.552 38.6425 587.25 39.1262C586.718 38.3009 586.13 37.5114 585.491 36.7628C585.554 37.6752 585.527 38.5914 585.409 39.4984C583.058 40.0002 581.118 40.5829 580.839 41.0524C578.998 40.3887 582.138 37.3941 580.987 35.8401C578.061 31.9553 582.401 26.2898 585.146 22.2754C590.785 14.0524 603.164 11.2034 611.926 16.1405C612.32 14.7969 614.342 13.9067 616.94 13.3077C618.04 13.0688 619.167 12.9655 620.293 13.0002C631.472 13.1944 646.991 22.2754 647.599 33.2664C647.649 34.3672 647.731 35.565 647.813 36.8437C648.602 49.146 647.632 60.4931 656.164 69.4932C659.255 72.7467 659.288 88.1568 658.104 96.0885C655.03 92.8997 652.843 80.5004 648.405 80.0309Z" fill="#2F2E41"/>
<path d="M357.676 144.51C359.358 144.51 360.722 143.167 360.722 141.51C360.722 139.853 359.358 138.51 357.676 138.51C355.993 138.51 354.629 139.853 354.629 141.51C354.629 143.167 355.993 144.51 357.676 144.51Z" fill="#222831"/>
<path d="M454.157 142.51C455.84 142.51 457.204 141.167 457.204 139.51C457.204 137.853 455.84 136.51 454.157 136.51C452.474 136.51 451.11 137.853 451.11 139.51C451.11 141.167 452.474 142.51 454.157 142.51Z" fill="#222831"/>
<path d="M164.135 54.7968C161.816 60.4829 155.274 71.6649 154.388 77.7649L154.787 77.3788C155.548 78.6584 156.412 79.8754 157.372 81.018C159.092 79.2391 161.17 77.8325 163.473 76.8877C162.215 79.4281 161.487 82.1907 161.331 85.0125C163.799 92.6319 175.212 89.2389 181.899 88.4069C188.576 95.9277 197.46 97.8902 209.093 93.5664C212.347 93.8962 215.989 94.0964 218.269 92.2034C220.549 90.3104 219.191 86.8046 220.418 84.1531C229.155 65.2661 221.092 58.4517 214.241 49.8877C212.733 48.003 212.739 45.1905 210.905 43.3924C208.359 40.8999 204.458 40.1333 200.86 39.5192C201.795 39.5677 202.726 39.3785 203.565 38.9698C204.404 38.5611 205.121 37.9467 205.649 37.1858C206.112 36.4191 206.351 35.5415 206.339 34.6496C206.328 33.7578 206.066 32.8864 205.584 32.1315C204.297 30.0313 201.624 28.81 199.045 28.5049C196.503 28.335 193.951 28.551 191.477 29.1455C189.874 29.353 188.322 29.8415 186.894 30.5878C186.22 30.9417 185.672 31.4898 185.323 32.1586C184.974 32.8274 184.841 33.5852 184.941 34.3306C185.156 35.0189 185.526 35.6506 186.023 36.1785C186.521 36.7064 187.133 37.117 187.814 37.3795C188.852 37.8118 189.945 38.1062 191.062 38.255C185.93 37.5992 180.717 38.4976 176.117 40.8306C170.352 43.8588 166.461 49.1137 164.135 54.7968Z" fill="#2F2E41"/>
<path d="M195.353 86.6755C206.735 86.6755 215.962 77.5901 215.962 66.3827C215.962 55.1753 206.735 46.0898 195.353 46.0898C183.971 46.0898 174.744 55.1753 174.744 66.3827C174.744 77.5901 183.971 86.6755 195.353 86.6755Z" fill="#A0616A"/>
<path d="M175.522 55.5019C176.717 59.0579 180.131 60.2038 183.288 60.9184C184.283 61.1468 185.284 61.3596 186.295 61.549C186.667 61.09 187.064 60.6402 187.478 60.215C189.198 58.4361 191.276 57.0295 193.579 56.0848C192.583 58.0915 191.921 60.2426 191.619 62.4561C193.527 62.7287 195.445 62.9514 197.375 63.1244C199.007 63.4665 200.71 63.178 202.132 62.3187C203.555 61.4593 204.588 60.0948 205.017 58.507C206.773 61.3349 208.85 63.9981 211.69 65.1214C213.314 65.696 215.082 65.7432 216.735 65.2562C218.388 64.7692 219.84 63.7736 220.876 62.4153C222.514 60.1996 223.649 57.6636 224.206 54.9787C225.012 51.8297 225.459 48.2022 223.877 46.2042C222.609 44.5872 220.423 44.5582 218.405 44.7017C213.952 45.038 209.545 45.8246 205.256 47.0489L204.893 47.8529C205.63 43.4921 204.031 39.2964 201.072 37.8042C199.077 36.8066 196.675 36.9738 194.343 37.1762C191.346 37.3079 188.385 37.8717 185.555 38.8496C182.308 40.0794 179.526 42.2669 177.591 45.113C175.52 48.2088 174.491 52.4309 175.522 55.5019Z" fill="#2F2E41"/>
<path d="M204.902 36.5351C204.699 36.476 205.225 36.5519 205.043 36.5568C205.134 36.5516 205.224 36.5391 205.312 36.5196C205.328 36.5166 205.533 36.4521 205.396 36.4996C205.703 36.4094 205.976 36.234 206.183 35.9944C206.667 35.4049 207.046 34.7393 207.306 34.0256C207.634 33.0824 208.16 32.2181 208.851 31.4894C209.047 31.2955 209.287 31.1499 209.55 31.0643C209.814 30.9788 210.095 30.9557 210.37 30.997C210.644 31.0383 210.905 31.1427 211.131 31.3019C211.357 31.4611 211.542 31.6706 211.67 31.9132C211.931 32.8493 211.842 33.8465 211.419 34.7232C211.123 35.6154 210.684 36.4547 210.117 37.209C209.167 38.4424 207.873 39.377 206.393 39.8991C204.68 40.5117 202.812 40.5643 201.066 40.049C200.835 39.9547 200.638 39.7965 200.497 39.5935C200.356 39.3905 200.278 39.1516 200.272 38.9058C200.267 38.6599 200.334 38.4179 200.466 38.209C200.598 38.0002 200.788 37.8336 201.015 37.7296L203.926 36.556C204.08 36.4896 204.245 36.4536 204.412 36.45C204.579 36.4464 204.746 36.4753 204.902 36.5351C205.058 36.5948 205.201 36.6843 205.322 36.7983C205.443 36.9123 205.54 37.0487 205.607 37.1996C205.674 37.3505 205.711 37.513 205.715 37.6779C205.718 37.8427 205.689 38.0067 205.628 38.1603C205.568 38.314 205.477 38.4544 205.361 38.5735C205.245 38.6926 205.107 38.7881 204.953 38.8545L202.042 40.028L201.99 37.7086C202.354 37.8119 202.727 37.8748 203.105 37.8963C203.508 37.936 203.914 37.9191 204.312 37.8462C204.693 37.797 205.068 37.707 205.429 37.5779C205.661 37.4947 205.888 37.4 206.109 37.2941C206.19 37.2556 206.27 37.2156 206.349 37.1742C206.343 37.1772 206.682 36.9829 206.533 37.0742C206.91 36.8372 207.263 36.5662 207.589 36.2647C207.703 36.1577 207.809 36.0417 207.905 35.9178C208.071 35.7172 208.225 35.5071 208.366 35.2888C208.653 34.8265 208.88 34.3308 209.042 33.8131C209.116 33.5956 209.179 33.3744 209.229 33.1504C209.243 33.0275 209.266 32.9056 209.297 32.7857C209.405 32.5 209.276 32.9526 209.401 33.0764L209.937 33.4658C210.038 33.4954 210.144 33.5022 210.248 33.4858C210.352 33.4695 210.451 33.4303 210.537 33.3712C210.601 33.2831 210.587 33.2977 210.496 33.4151C210.389 33.5532 210.292 33.6978 210.204 33.848C210.012 34.2016 209.838 34.5647 209.683 34.9357C209.362 35.7248 208.957 36.478 208.475 37.1824C208.002 37.8949 207.312 38.4421 206.505 38.7461C205.697 39.0501 204.813 39.0954 203.978 38.8755C203.664 38.7526 203.412 38.5134 203.277 38.2093C203.141 37.9053 203.132 37.5608 203.251 37.2503C203.379 36.9442 203.623 36.6988 203.93 36.5655C204.238 36.4322 204.586 36.4213 204.902 36.5351Z" fill="#2F2E41"/>
</g>
<defs>
<clipPath id="clip0_29_11209">
<rect width="734" height="494" fill="white"/>
</clipPath>
</defs>
</svg>
