<svg width="64" height="64" viewBox="0 0 64 64" fill="none" xmlns="http://www.w3.org/2000/svg">
<path d="M53.4122 23.4721C54.3233 22.5609 55.046 21.4791 55.539 20.2885C56.032 19.0979 56.2857 17.8219 56.2856 16.5333C56.2855 15.2447 56.0315 13.9687 55.5383 12.7783C55.045 11.5878 54.3222 10.5061 53.4109 9.59501C52.4996 8.6839 51.4178 7.96121 50.2273 7.46819C49.0367 6.97516 47.7607 6.72147 46.4721 6.72159C45.1834 6.7217 43.9075 6.97563 42.717 7.46887C41.5265 7.96211 40.4449 8.685 39.5338 9.59627L29.4021 19.727C27.5645 21.5682 26.5325 24.0633 26.5325 26.6646C26.5325 29.2659 27.5645 31.7609 29.4021 33.6022C30.0323 34.2324 30.3864 35.0873 30.3864 35.9786C30.3864 36.8699 30.0324 37.7248 29.4021 38.355C28.7718 38.9853 27.917 39.3394 27.0256 39.3394C26.1343 39.3394 25.2795 38.9853 24.6492 38.3551C21.5529 35.2523 19.814 31.0479 19.814 26.6646C19.814 22.2812 21.5529 18.0768 24.6492 14.9741L34.7809 4.84336C37.8815 1.74243 42.087 0.000225816 46.4721 2.19205e-08C48.6434 -0.00011178 50.7935 0.427448 52.7995 1.25827C54.8056 2.08908 56.6284 3.30689 58.1638 4.84216C59.6992 6.37742 60.9172 8.20008 61.7482 10.2061C62.5793 12.212 63.007 14.3621 63.0072 16.5334C63.0073 18.7047 62.5797 20.8547 61.7489 22.8608C60.9181 24.8669 59.7003 26.6896 58.165 28.2251L53.1465 33.2425C52.5161 33.872 51.6615 34.2253 50.7706 34.2249C49.8798 34.2246 49.0255 33.8705 48.3956 33.2406C47.7657 32.6106 47.4116 31.7564 47.4112 30.8655C47.4109 29.9746 47.7642 29.1201 48.3937 28.4896L53.4122 23.4721ZM4.83504 58.1673C7.93869 61.2632 12.1435 63.0017 16.5272 63.0016C20.911 63.0014 25.1157 61.2626 28.2191 58.1666L38.3505 48.0366C39.8859 46.5015 41.1039 44.679 41.9349 42.6731C42.7659 40.6672 43.1936 38.5173 43.1936 36.3461C43.1936 34.1749 42.7659 32.025 41.9349 30.0191C41.1039 28.0132 39.8859 26.1907 38.3505 24.6556C37.72 24.0262 36.8655 23.6728 35.9746 23.6732C35.0838 23.6736 34.2295 24.0276 33.5996 24.6576C32.9696 25.2875 32.6156 26.1418 32.6152 27.0326C32.6149 27.9235 32.9682 28.7781 33.5976 29.4085C34.5089 30.3195 35.2317 31.4012 35.7249 32.5916C36.218 33.782 36.4719 35.0579 36.4719 36.3464C36.4719 37.635 36.218 38.9109 35.7249 40.1013C35.2317 41.2917 34.5089 42.3733 33.5976 43.2844L23.4663 53.4144C22.5552 54.3256 21.4735 55.0485 20.283 55.5418C19.0926 56.035 17.8166 56.2889 16.528 56.2891C15.2394 56.2892 13.9634 56.0355 12.7728 55.5425C11.5822 55.0494 10.5004 54.3267 9.58916 53.4156C7.74877 51.5756 6.71472 49.0798 6.71448 46.4773C6.71436 45.1887 6.96805 43.9127 7.46107 42.7221C7.9541 41.5316 8.67679 40.4498 9.58789 39.5385L14.606 34.521C15.2355 33.8906 15.5888 33.036 15.5885 32.1452C15.5881 31.2543 15.234 30.4 14.6041 29.7701C13.9742 29.1402 13.1199 28.7861 12.2291 28.7857C11.3382 28.7854 10.4836 29.1387 9.85319 29.7681L4.83504 34.7856C1.73885 37.8886 0 42.093 0 46.4765C0 50.8599 1.73885 55.0644 4.83504 58.1673Z" fill="#222831"/>
</svg>
