<svg width="233" height="187" viewBox="0 0 233 187" fill="none" xmlns="http://www.w3.org/2000/svg">
<path d="M230.256 34.1864C215.609 18.2917 200.113 -3.32705 175.765 4.71857C164.196 8.54166 158.688 25.421 162.013 35.644C164.771 44.1239 164.782 55.0931 176.088 59.6575C184.969 63.2428 194.724 61.9119 199.288 54.9958C212.249 35.3553 176.604 24.9296 161.225 28.9335C140.234 34.3985 126.874 84.5231 149.805 98.3293C169.466 110.167 175.233 89.3212 160.808 78.2878C140.516 62.7671 125.568 63.3416 111.317 82.6232C100.189 97.6784 110.757 121.998 125.803 134.084C128.927 136.594 142.818 154.759 144.56 152.704C161.745 132.427 116.151 107.841 95.6153 113.351C72.0204 119.683 48.2671 126.334 36.2482 144.807C29.785 154.741 21.8793 189.147 22.0486 177.142C22.2604 162.119 20.9425 141.623 10.3454 127.466C7.19203 123.254 -2.53064 109.633 6.12328 122.912C15.0358 136.588 23.2304 148.496 28.9224 162.311C30.1891 165.386 26.7109 170.141 25.8065 172.896C25.0406 175.229 34.6338 171.589 35.8377 171.384C46.2328 169.616 56.8617 172.504 67.102 176.316C76.242 179.719 87.4383 186.548 92.9038 183.415" stroke="black" stroke-opacity="0.2" stroke-width="4" stroke-linecap="round" stroke-linejoin="round"/>
</svg>
